<svg width="166" height="82" viewBox="0 0 166 82" fill="none" xmlns="http://www.w3.org/2000/svg">
<g filter="url(#filter0_f_318_144)">
<path d="M137.5 13.7956C132.91 13.7956 128.881 15.701 126.571 18.5705C124.633 18.1618 122.608 18.0884 120.631 18.355C118.655 18.6217 116.772 19.2223 115.108 20.1169C113.444 21.0116 112.038 22.1796 110.983 23.5432C109.928 24.9068 109.248 26.4346 108.989 28.0249C108.731 29.6151 108.898 31.2312 109.482 32.7655C110.065 34.2998 111.05 35.717 112.372 36.9227C113.694 38.1284 115.322 39.0948 117.147 39.7576C118.972 40.4204 120.953 40.7643 122.958 40.7664H150.924C152.359 40.7717 153.781 40.547 155.106 40.1056C156.431 39.6642 157.632 39.0151 158.638 38.1965C159.645 37.3779 160.436 36.4064 160.966 35.3392C161.495 34.2721 161.752 33.1309 161.722 31.983C161.691 30.835 161.374 29.7036 160.788 28.6554C160.203 27.6072 159.36 26.6634 158.311 25.8797C157.263 25.096 156.028 24.4882 154.681 24.0922C153.334 23.6962 151.901 23.52 150.468 23.574C150.272 20.929 148.82 18.4438 146.41 16.6265C143.999 14.8093 140.812 13.7954 137.5 13.7956Z" fill="white" fill-opacity="0.19"/>
<path d="M83.8748 3.99997C71.0673 3.99997 59.8272 9.16824 53.3832 16.9519C47.975 15.8433 42.3252 15.644 36.8102 16.3673C31.2953 17.0906 26.0418 18.7198 21.4001 21.1465C16.7584 23.5731 12.8351 26.7414 9.8915 30.4402C6.94795 34.1389 5.05185 38.2832 4.32956 42.5967C3.60728 46.9103 4.07541 51.294 5.70275 55.4558C7.33009 59.6176 10.0793 63.4617 13.767 66.7321C17.4548 70.0025 21.9964 72.6239 27.0893 74.4217C32.1821 76.2195 37.7091 77.1524 43.3019 77.1581H121.326C125.33 77.1724 129.298 76.563 132.994 75.3658C136.691 74.1686 140.042 72.4078 142.85 70.1873C145.658 67.9669 147.865 65.3316 149.343 62.4369C150.821 59.5423 151.538 56.4468 151.453 53.3331C151.368 50.2193 150.482 47.1504 148.848 44.3071C147.214 41.4638 144.864 38.9038 141.938 36.778C139.012 34.6521 135.568 33.0036 131.809 31.9294C128.05 30.8553 124.053 30.3774 120.053 30.5238C119.507 23.3492 115.457 16.6081 108.732 11.6788C102.007 6.74953 93.1155 3.99934 83.8748 3.99997Z" fill="white" fill-opacity="0.19"/>
</g>
<defs>
<filter id="filter0_f_318_144" x="0" y="-3.05176e-05" width="165.724" height="81.1584" filterUnits="userSpaceOnUse" color-interpolation-filters="sRGB">
<feFlood flood-opacity="0" result="BackgroundImageFix"/>
<feBlend mode="normal" in="SourceGraphic" in2="BackgroundImageFix" result="shape"/>
<feGaussianBlur stdDeviation="2" result="effect1_foregroundBlur_318_144"/>
</filter>
</defs>
</svg>
