<svg width="268" height="135" viewBox="0 0 268 135" fill="none" xmlns="http://www.w3.org/2000/svg">
<g filter="url(#filter0_d_318_140)">
<path d="M138.62 4C116.393 4 96.8859 12.9693 85.7026 26.4776C76.317 24.5536 66.5119 24.2078 56.9409 25.463C47.3699 26.7182 38.2528 29.5458 30.1973 33.7571C22.1418 37.9685 15.3329 43.4669 10.2245 49.8859C5.11605 56.305 1.82544 63.4972 0.57194 70.9832C-0.681556 78.4692 0.130866 86.077 2.95505 93.2996C5.77924 100.522 10.5503 107.194 16.9503 112.869C23.3503 118.545 31.2321 123.094 40.0705 126.214C48.9089 129.334 58.5009 130.953 68.207 130.963H203.615C210.564 130.988 217.449 129.93 223.865 127.853C230.28 125.775 236.096 122.719 240.968 118.866C245.841 115.012 249.673 110.439 252.237 105.415C254.801 100.392 256.046 95.0195 255.899 89.6157C255.751 84.2119 254.214 78.8858 251.378 73.9514C248.542 69.017 244.465 64.5742 239.386 60.8849C234.307 57.1956 228.33 54.3346 221.807 52.4705C215.285 50.6064 208.348 49.777 201.406 50.0311C200.458 37.5799 193.429 25.8809 181.759 17.3263C170.088 8.77176 154.656 3.99891 138.62 4Z" fill="#E1E8ED"/>
</g>
<defs>
<filter id="filter0_d_318_140" x="0" y="0" width="267.911" height="134.964" filterUnits="userSpaceOnUse" color-interpolation-filters="sRGB">
<feFlood flood-opacity="0" result="BackgroundImageFix"/>
<feColorMatrix in="SourceAlpha" type="matrix" values="0 0 0 0 0 0 0 0 0 0 0 0 0 0 0 0 0 0 127 0" result="hardAlpha"/>
<feOffset dx="8"/>
<feGaussianBlur stdDeviation="2"/>
<feComposite in2="hardAlpha" operator="out"/>
<feColorMatrix type="matrix" values="0 0 0 0 0 0 0 0 0 0 0 0 0 0 0 0 0 0 0.25 0"/>
<feBlend mode="normal" in2="BackgroundImageFix" result="effect1_dropShadow_318_140"/>
<feBlend mode="normal" in="SourceGraphic" in2="effect1_dropShadow_318_140" result="shape"/>
</filter>
</defs>
</svg>
