<svg width="89" height="91" viewBox="0 0 89 91" fill="none" xmlns="http://www.w3.org/2000/svg">
<g filter="url(#filter0_d_309_110)">
<path d="M65.3125 9.33333C72.3521 9.33333 78.9375 11.5267 84.3421 15.3067L79.0738 28.7933C75.3152 25.2647 70.4036 23.3159 65.3125 23.3333C53.9583 23.3333 44.875 32.6667 44.875 44.3333C44.875 56 53.9583 65.3333 65.3125 65.3333C69.9904 65.3333 74.2596 63.7467 77.7112 61.04L82.8888 74.34C77.5833 77.6215 71.505 79.3483 65.3125 79.3333C56.2786 79.3333 47.6146 75.6458 41.2267 69.0821C34.8387 62.5183 31.25 53.6159 31.25 44.3333C31.25 35.0508 34.8387 26.1484 41.2267 19.5846C47.6146 13.0208 56.2786 9.33333 65.3125 9.33333ZM17.625 0C21.2386 0 24.7041 1.475 27.2593 4.10051C29.8145 6.72602 31.25 10.287 31.25 14C31.25 17.713 29.8145 21.274 27.2593 23.8995C24.7041 26.525 21.2386 28 17.625 28C14.0114 28 10.5459 26.525 7.99067 23.8995C5.43549 21.274 4 17.713 4 14C4 10.287 5.43549 6.72602 7.99067 4.10051C10.5459 1.475 14.0114 0 17.625 0ZM17.625 9.33333C16.4205 9.33333 15.2653 9.825 14.4136 10.7002C13.5618 11.5753 13.0833 12.7623 13.0833 14C13.0833 15.2377 13.5618 16.4247 14.4136 17.2998C15.2653 18.175 16.4205 18.6667 17.625 18.6667C18.8295 18.6667 19.9847 18.175 20.8364 17.2998C21.6882 16.4247 22.1667 15.2377 22.1667 14C22.1667 12.7623 21.6882 11.5753 20.8364 10.7002C19.9847 9.825 18.8295 9.33333 17.625 9.33333Z" fill="white"/>
</g>
<defs>
<filter id="filter0_d_309_110" x="0" y="0" width="88.3421" height="90.3334" filterUnits="userSpaceOnUse" color-interpolation-filters="sRGB">
<feFlood flood-opacity="0" result="BackgroundImageFix"/>
<feColorMatrix in="SourceAlpha" type="matrix" values="0 0 0 0 0 0 0 0 0 0 0 0 0 0 0 0 0 0 127 0" result="hardAlpha"/>
<feOffset dy="7"/>
<feGaussianBlur stdDeviation="2"/>
<feComposite in2="hardAlpha" operator="out"/>
<feColorMatrix type="matrix" values="0 0 0 0 0 0 0 0 0 0 0 0 0 0 0 0 0 0 0.25 0"/>
<feBlend mode="normal" in2="BackgroundImageFix" result="effect1_dropShadow_309_110"/>
<feBlend mode="normal" in="SourceGraphic" in2="effect1_dropShadow_309_110" result="shape"/>
</filter>
</defs>
</svg>
