<svg width="20" height="33" viewBox="0 0 20 33" fill="none" xmlns="http://www.w3.org/2000/svg">
<path d="M10 33C7.22917 33 4.86958 31.6099 2.92125 28.8297C0.972917 26.0495 -0.000832799 22.6648 5.34416e-07 18.6758C5.34416e-07 16.772 0.255417 14.9515 0.76625 13.2145C1.27708 11.4775 2.00083 9.94352 2.9375 8.61264L8.25 1.04258C8.5 0.710165 8.77625 0.453297 9.07875 0.271978C9.38125 0.0906595 9.68833 0 10 0C10.3117 0 10.6192 0.0906595 10.9225 0.271978C11.2258 0.453297 11.5017 0.710165 11.75 1.04258L17.0625 8.61264C18 9.94231 18.7242 11.4763 19.235 13.2145C19.7458 14.9527 20.0008 16.7732 20 18.6758C20 22.6648 19.0262 26.0495 17.0787 28.8297C15.1312 31.6099 12.7717 33 10 33Z" fill="white"/>
</svg>
