<svg width="343" height="228" viewBox="0 0 343 228" fill="none" xmlns="http://www.w3.org/2000/svg">
<g filter="url(#filter0_d_318_163)">
<path d="M234.949 15.6775L257.197 0.481386C258.591 -0.470669 260.505 0.0422998 261.236 1.56398L272.905 25.8485C273.146 26.3486 273.531 26.7646 274.012 27.042C274.492 27.3195 275.045 27.4454 275.599 27.4034L302.464 25.3669C304.147 25.2394 305.549 26.6409 305.421 28.3241L303.385 55.1895C303.343 55.7428 303.469 56.2958 303.746 56.7763C304.023 57.2568 304.439 57.6424 304.94 57.8826L329.224 69.5519C330.746 70.283 331.259 72.1975 330.307 73.5913L315.111 95.8392C314.798 96.2973 314.63 96.8392 314.63 97.394C314.63 97.9488 314.798 98.4907 315.111 98.9488L330.307 121.197C331.259 122.591 330.746 124.505 329.224 125.236L304.94 136.905C304.439 137.146 304.023 137.531 303.746 138.012C303.469 138.492 303.343 139.045 303.385 139.599L305.421 166.464C305.549 168.147 304.147 169.549 302.464 169.421L275.599 167.385C275.045 167.343 274.492 167.469 274.012 167.746C273.531 168.023 273.146 168.439 272.905 168.94L261.236 193.224C260.505 194.746 258.591 195.259 257.197 194.307L234.949 179.111C234.491 178.798 233.949 178.63 233.394 178.63C232.839 178.63 232.297 178.798 231.839 179.111L209.591 194.307C208.197 195.259 206.283 194.746 205.552 193.224L193.883 168.94C193.642 168.439 193.257 168.023 192.776 167.746C192.296 167.469 191.743 167.343 191.19 167.385L164.324 169.421C162.641 169.549 161.239 168.147 161.367 166.464L163.403 139.599C163.445 139.045 163.319 138.492 163.042 138.012C162.765 137.531 162.349 137.146 161.848 136.905L137.564 125.236C136.042 124.505 135.529 122.591 136.481 121.197L151.677 98.9488C151.99 98.4907 152.158 97.9488 152.158 97.394C152.158 96.8392 151.99 96.2973 151.677 95.8392L136.481 73.5909C135.529 72.1971 136.042 70.2823 137.564 69.5515L161.848 57.8822C162.349 57.642 162.765 57.2564 163.042 56.7759C163.319 56.2954 163.445 55.7424 163.403 55.1891L161.367 28.3237C161.239 26.6405 162.641 25.239 164.324 25.3665L191.19 27.4031C191.743 27.445 192.296 27.3191 192.776 27.0416C193.257 26.7642 193.642 26.3482 193.883 25.8481L205.552 1.5636C206.283 0.041917 208.197 -0.471052 209.591 0.481003L231.839 15.6771C232.297 15.9901 232.839 16.1576 233.394 16.1577C233.949 16.1578 234.491 15.9904 234.949 15.6775Z" fill="#FFC639"/>
<path d="M233.394 171.818C274.497 171.818 307.818 138.497 307.818 97.3938C307.818 56.2903 274.497 22.9693 233.394 22.9693C192.29 22.9693 158.969 56.2903 158.969 97.3938C158.969 138.497 192.29 171.818 233.394 171.818Z" fill="#FFE564"/>
</g>
<g filter="url(#filter1_d_318_163)">
<path d="M138.62 97C116.393 97 96.8859 105.969 85.7026 119.478C76.317 117.554 66.5119 117.208 56.9409 118.463C47.3699 119.718 38.2528 122.546 30.1973 126.757C22.1418 130.968 15.3329 136.467 10.2245 142.886C5.11605 149.305 1.82544 156.497 0.57194 163.983C-0.681556 171.469 0.130866 179.077 2.95505 186.3C5.77924 193.522 10.5503 200.194 16.9503 205.869C23.3503 211.545 31.2321 216.094 40.0705 219.214C48.9089 222.334 58.5009 223.953 68.207 223.963H203.615C210.564 223.988 217.449 222.93 223.865 220.853C230.28 218.775 236.096 215.719 240.968 211.866C245.841 208.012 249.673 203.439 252.237 198.415C254.801 193.392 256.046 188.019 255.899 182.616C255.751 177.212 254.214 171.886 251.378 166.951C248.542 162.017 244.465 157.574 239.386 153.885C234.307 150.196 228.33 147.335 221.807 145.471C215.285 143.606 208.348 142.777 201.406 143.031C200.458 130.58 193.429 118.881 181.759 110.326C170.088 101.772 154.656 96.9989 138.62 97Z" fill="#E1E8ED"/>
</g>
<defs>
<filter id="filter0_d_318_163" x="136" y="0" width="206.788" height="205.788" filterUnits="userSpaceOnUse" color-interpolation-filters="sRGB">
<feFlood flood-opacity="0" result="BackgroundImageFix"/>
<feColorMatrix in="SourceAlpha" type="matrix" values="0 0 0 0 0 0 0 0 0 0 0 0 0 0 0 0 0 0 127 0" result="hardAlpha"/>
<feOffset dx="8" dy="7"/>
<feGaussianBlur stdDeviation="2"/>
<feComposite in2="hardAlpha" operator="out"/>
<feColorMatrix type="matrix" values="0 0 0 0 0 0 0 0 0 0 0 0 0 0 0 0 0 0 0.25 0"/>
<feBlend mode="normal" in2="BackgroundImageFix" result="effect1_dropShadow_318_163"/>
<feBlend mode="normal" in="SourceGraphic" in2="effect1_dropShadow_318_163" result="shape"/>
</filter>
<filter id="filter1_d_318_163" x="0" y="93" width="270.911" height="134.964" filterUnits="userSpaceOnUse" color-interpolation-filters="sRGB">
<feFlood flood-opacity="0" result="BackgroundImageFix"/>
<feColorMatrix in="SourceAlpha" type="matrix" values="0 0 0 0 0 0 0 0 0 0 0 0 0 0 0 0 0 0 127 0" result="hardAlpha"/>
<feOffset dx="11"/>
<feGaussianBlur stdDeviation="2"/>
<feComposite in2="hardAlpha" operator="out"/>
<feColorMatrix type="matrix" values="0 0 0 0 0 0 0 0 0 0 0 0 0 0 0 0 0 0 0.25 0"/>
<feBlend mode="normal" in2="BackgroundImageFix" result="effect1_dropShadow_318_163"/>
<feBlend mode="normal" in="SourceGraphic" in2="effect1_dropShadow_318_163" result="shape"/>
</filter>
</defs>
</svg>
