<svg width="166" height="82" viewBox="0 0 166 82" fill="none" xmlns="http://www.w3.org/2000/svg">
<g filter="url(#filter0_f_318_145)">
<path d="M28.2241 13.7957C32.8146 13.7957 36.8433 15.701 39.153 18.5706C41.0914 18.1619 43.1164 18.0884 45.0931 18.355C47.0698 18.6217 48.9527 19.2223 50.6164 20.117C52.2801 21.0116 53.6863 22.1796 54.7414 23.5432C55.7964 24.9068 56.476 26.4346 56.7349 28.0249C56.9938 29.6151 56.826 31.2313 56.2427 32.7655C55.6594 34.2998 54.6741 35.717 53.3523 36.9227C52.0305 38.1284 50.4027 39.0948 48.5773 39.7576C46.7519 40.4204 44.7709 40.7643 42.7663 40.7664H14.8006C13.3654 40.7717 11.9434 40.547 10.6185 40.1056C9.29352 39.6643 8.09245 39.0151 7.08606 38.1965C6.07968 37.3779 5.28836 36.4064 4.75877 35.3392C4.22917 34.2721 3.97202 33.1309 4.00248 31.983C4.03294 30.8351 4.35039 29.7036 4.93611 28.6554C5.52183 27.6072 6.36397 26.6634 7.41287 25.8797C8.46177 25.096 9.69619 24.4882 11.0434 24.0922C12.3905 23.6962 13.8232 23.52 15.2568 23.574C15.4527 20.929 16.9043 18.4438 19.3146 16.6266C21.7249 14.8093 24.912 13.7954 28.2241 13.7957Z" fill="white" fill-opacity="0.19"/>
<path d="M81.8495 4C94.657 4 105.897 9.16827 112.341 16.9519C117.749 15.8433 123.399 15.644 128.914 16.3673C134.429 17.0906 139.682 18.7199 144.324 21.1465C148.966 23.5732 152.889 26.7415 155.833 30.4402C158.776 34.139 160.672 38.2832 161.395 42.5968C162.117 46.9103 161.649 51.2941 160.022 55.4558C158.394 59.6176 155.645 63.4618 151.957 66.7321C148.27 70.0025 143.728 72.624 138.635 74.4218C133.542 76.2196 128.015 77.1524 122.422 77.1581H44.3981C40.3939 77.1724 36.4265 76.563 32.7299 75.3658C29.0333 74.1686 25.6823 72.4079 22.8745 70.1874C20.0667 67.9669 17.8589 65.3316 16.3813 62.437C14.9037 59.5423 14.1863 56.4469 14.2713 53.3331C14.3562 50.2194 15.2419 47.1504 16.8761 44.3071C18.5103 41.4638 20.8598 38.9038 23.7862 36.778C26.7127 34.6522 30.1567 33.0036 33.9153 31.9295C37.6739 30.8554 41.671 30.3774 45.6708 30.5239C46.2174 23.3493 50.2672 16.6081 56.9921 11.6788C63.7169 6.74956 72.6088 3.99937 81.8495 4Z" fill="white" fill-opacity="0.19"/>
</g>
<defs>
<filter id="filter0_f_318_145" x="6.10352e-05" y="0" width="165.724" height="81.1584" filterUnits="userSpaceOnUse" color-interpolation-filters="sRGB">
<feFlood flood-opacity="0" result="BackgroundImageFix"/>
<feBlend mode="normal" in="SourceGraphic" in2="BackgroundImageFix" result="shape"/>
<feGaussianBlur stdDeviation="2" result="effect1_foregroundBlur_318_145"/>
</filter>
</defs>
</svg>
