<svg width="62" height="48" viewBox="0 0 62 48" fill="none" xmlns="http://www.w3.org/2000/svg">
<path d="M7.75 16H24.5417C25.819 16 27.0677 15.7068 28.1297 15.1573C29.1918 14.6079 30.0196 13.827 30.5084 12.9134C30.9972 11.9998 31.1251 10.9945 30.8759 10.0246C30.6267 9.05465 30.0116 8.16373 29.1084 7.46447C28.2052 6.76521 27.0544 6.289 25.8016 6.09608C24.5488 5.90315 23.2503 6.00217 22.0702 6.3806C20.8901 6.75904 19.8814 7.39991 19.1718 8.22215C18.4621 9.0444 18.0833 10.0111 18.0833 11V11.714M10.3333 28H47.7917C49.5799 28 51.3281 28.4105 52.815 29.1797C54.3018 29.9489 55.4607 31.0421 56.1451 32.3212C56.8294 33.6003 57.0085 35.0078 56.6596 36.3656C56.3107 37.7235 55.4496 38.9708 54.1851 39.9498C52.9206 40.9287 51.3095 41.5954 49.5556 41.8655C47.8017 42.1356 45.9837 41.997 44.3316 41.4672C42.6794 40.9373 41.2673 40.0401 40.2738 38.889C39.2803 37.7379 38.75 36.3845 38.75 35V34" stroke="white" stroke-width="3" stroke-linecap="round"/>
<path d="M5.16663 22H47.7916C49.5799 22 51.328 21.5895 52.8149 20.8203C54.3018 20.0511 55.4607 18.9579 56.145 17.6788C56.8294 16.3997 57.0084 14.9922 56.6596 13.6344C56.3107 12.2765 55.4495 11.0292 54.1851 10.0503C52.9206 9.07129 51.3095 8.4046 49.5556 8.13451C47.8017 7.86441 45.9837 8.00303 44.3315 8.53285C42.6794 9.06266 41.2673 9.95987 40.2738 11.111C39.2802 12.2622 38.75 13.6155 38.75 15V16" stroke="white" stroke-width="3" stroke-linecap="round"/>
</svg>
