<svg width="178" height="175" viewBox="0 0 178 175" fill="none" xmlns="http://www.w3.org/2000/svg">
<path d="M26.1632 156.027L12.1819 1.84839H165.818L151.823 156.004L88.9068 173.153L26.1632 156.027Z" fill="#1572B6"/>
<path d="M89.0013 160.046L139.841 146.188L151.802 14.4539H89.0013V160.046Z" fill="#33A9DC"/>
<path d="M89.0013 70.3131H114.453L116.21 50.9496H89.0013V32.04H137.231L136.769 37.1137L132.041 89.2227H89.0013V70.3131Z" fill="white"/>
<path d="M89.1155 119.422L89.0306 119.447L67.6108 113.761L66.2411 98.6794H46.9364L49.63 128.371L89.0278 139.121L89.1155 139.096V119.422Z" fill="#EBEBEB"/>
<path d="M112.817 88.4229L110.5 113.746L89.0487 119.439V139.113L128.478 128.369L128.768 125.174L132.114 88.4229H112.817Z" fill="white"/>
<path d="M89.0668 32.04V50.9496H42.6088L42.2236 46.7004L41.3475 37.1137L40.8872 32.04H89.0668ZM89.0014 70.3158V89.2254H67.8514L67.4662 84.9762L66.5887 75.3895L66.1298 70.3158H89.0014Z" fill="#EBEBEB"/>
</svg>
