<svg width="122" height="171" viewBox="0 0 122 171" fill="none" xmlns="http://www.w3.org/2000/svg">
<path d="M30.5206 170.203C47.3118 170.203 60.8576 157.536 60.8576 141.835V113.468H30.5206C13.7294 113.468 0.183594 126.135 0.183594 141.835C0.183594 157.536 13.7294 170.203 30.5206 170.203Z" fill="#0ACF83"/>
<path d="M0.183594 85.1012C0.183594 69.4004 13.7294 56.7341 30.5206 56.7341H60.8576V113.468H30.5206C13.7294 113.468 0.183594 100.802 0.183594 85.1012Z" fill="#A259FF"/>
<path d="M0.183594 28.3671C0.183594 12.6662 13.7294 0 30.5206 0H60.8576V56.7342H30.5206C13.7294 56.7342 0.183594 44.0679 0.183594 28.3671Z" fill="#F24E1E"/>
<path d="M60.8577 0H91.1947C107.986 0 121.532 12.6662 121.532 28.3671C121.532 44.0679 107.986 56.7342 91.1947 56.7342H60.8577V0Z" fill="#FF7262"/>
<path d="M121.532 85.1012C121.532 100.802 107.986 113.468 91.1947 113.468C74.4035 113.468 60.8577 100.802 60.8577 85.1012C60.8577 69.4004 74.4035 56.7341 91.1947 56.7341C107.986 56.7341 121.532 69.4004 121.532 85.1012Z" fill="#1ABCFE"/>
</svg>
