<svg width="337" height="337" viewBox="0 0 337 337" fill="none" xmlns="http://www.w3.org/2000/svg">
<path d="M168.5 28.0833C150.06 28.0833 131.801 31.7152 114.765 38.7718C97.7286 45.8284 82.2492 56.1714 69.2103 69.2103C42.8771 95.5436 28.0833 131.259 28.0833 168.5C28.0833 230.564 68.3828 283.22 124.128 301.896C131.149 303.019 133.396 298.666 133.396 294.875V271.145C94.5003 279.57 86.2158 252.329 86.2158 252.329C79.7566 236.04 70.6295 231.687 70.6295 231.687C57.8516 222.982 71.6124 223.262 71.6124 223.262C85.6541 224.245 93.0962 237.725 93.0962 237.725C105.312 259.069 125.954 252.75 133.957 249.38C135.221 240.253 138.872 234.075 142.804 230.564C111.631 227.054 78.9141 214.978 78.9141 161.479C78.9141 145.893 84.2499 133.396 93.377 123.426C91.9728 119.916 87.0583 105.312 94.7812 86.3562C94.7812 86.3562 106.576 82.5649 133.396 100.679C144.489 97.5895 156.564 96.0449 168.5 96.0449C180.435 96.0449 192.511 97.5895 203.604 100.679C230.424 82.5649 242.219 86.3562 242.219 86.3562C249.942 105.312 245.027 119.916 243.623 123.426C252.75 133.396 258.086 145.893 258.086 161.479C258.086 215.118 225.228 226.913 193.915 230.424C198.97 234.777 203.604 243.342 203.604 256.401V294.875C203.604 298.666 205.851 303.16 213.012 301.896C268.757 283.08 308.917 230.564 308.917 168.5C308.917 150.06 305.285 131.801 298.228 114.765C291.171 97.7286 280.828 82.2492 267.79 69.2103C254.751 56.1714 239.271 45.8284 222.235 38.7718C205.199 31.7152 186.94 28.0833 168.5 28.0833Z" fill="white"/>
</svg>
