<svg width="154" height="174" viewBox="0 0 154 174" fill="none" xmlns="http://www.w3.org/2000/svg">
<path d="M14.4053 156.38L0.462036 0H153.671L139.709 156.355L76.9734 173.748L14.4053 156.38Z" fill="#E44F26"/>
<path d="M77.0664 160.457L127.764 146.402L139.69 12.7892H77.0664V160.457Z" fill="#F1662A"/>
<path d="M77.0664 70.7839H51.6867L49.9368 51.1441H77.0664V31.9635H28.9753L29.4345 37.1139L34.1444 89.9644H77.0664V70.7839ZM77.0664 120.594L76.9795 120.619L55.6209 114.854L54.2557 99.5578H35.0007L37.6876 129.666L76.9795 140.575L77.0664 140.55V120.594Z" fill="#EBEBEB"/>
<path d="M76.9983 70.7839V89.9644H100.616L98.3942 114.841L76.9983 120.612V140.569L116.321 129.666L116.607 126.427L121.112 75.9343L121.583 70.7839H76.9983ZM76.9983 31.9635V51.1441H123.327L123.712 46.8376L124.587 37.1139L125.046 31.9635H76.9983Z" fill="white"/>
</svg>
