<svg width="178" height="175" viewBox="0 0 178 175" fill="none" xmlns="http://www.w3.org/2000/svg">
<path d="M26.1632 156.027L12.1819 1.84839H165.818L151.823 156.004L88.9068 173.153L26.1632 156.027Z" fill="#1572B6"/>
<path d="M89.0015 160.046L139.841 146.188L151.802 14.4539H89.0015V160.046Z" fill="#33A9DC"/>
<path d="M89.0015 70.3131H114.453L116.21 50.9496H89.0015V32.04H137.231L136.769 37.1137L132.041 89.2227H89.0015V70.3131Z" fill="white"/>
<path d="M89.1153 119.422L89.0305 119.447L67.6107 113.761L66.2409 98.6794H46.9363L49.6299 128.371L89.0277 139.121L89.1153 139.096V119.422Z" fill="#EBEBEB"/>
<path d="M112.817 88.4229L110.5 113.746L89.0486 119.439V139.113L128.478 128.369L128.768 125.174L132.113 88.4229H112.817Z" fill="white"/>
<path d="M89.0668 32.04V50.9496H42.6088L42.2236 46.7004L41.3475 37.1137L40.8872 32.04H89.0668ZM89.0014 70.3158V89.2254H67.8514L67.4662 84.9762L66.5887 75.3895L66.1298 70.3158H89.0014Z" fill="#EBEBEB"/>
<path d="M13.1147 1.57654L13.1388 3.48523C13.152 4.53502 16.2159 39.2926 19.9476 80.724L26.7324 156.054L57.2268 164.529C73.9987 169.19 88.0674 173.028 88.4904 173.057C88.9134 173.087 103.168 169.288 120.167 164.616C147.422 157.125 151.101 155.996 151.296 155.069C151.568 153.777 164.915 4.3208 164.901 2.72176L164.891 1.57654H89.0026H13.1147Z" fill="white"/>
<path d="M57.4683 165.036L26.7027 156.5L26.3006 154.241C25.9433 152.233 12.6018 4.31903 12.6018 2.36467C12.6018 1.65734 20.3912 1.57654 89.0026 1.57654C161.426 1.57654 165.404 1.6234 165.398 2.46776C165.374 6.11465 151.565 155.987 151.225 156.286C150.796 156.663 91.2492 173.13 89.2594 173.422C88.6953 173.505 74.3893 169.731 57.4683 165.036ZM108.402 134.874C118.743 132.043 127.353 129.581 127.535 129.402C127.718 129.224 128.928 117.053 130.224 102.356C131.521 87.6592 132.712 74.661 132.872 73.4712L133.163 71.308H88.4902V90.1405H112.609L112.37 91.2857C112.238 91.9156 111.725 97.3284 111.23 103.314C110.705 109.657 110.084 114.442 109.74 114.783C109.415 115.106 104.501 116.599 98.8198 118.102L88.4902 120.835V130.428C88.4902 136.976 88.6666 140.021 89.0457 140.021C89.3512 140.021 98.0617 137.705 108.402 134.874ZM132.869 59.4741C132.53 56.9801 129.511 23.5285 129.511 22.2672C129.511 21.5011 127.736 21.4275 109.257 21.4275H89.003V41.1204L98.1045 41.4686C103.11 41.6601 108.378 41.9516 109.811 42.1163L112.417 42.4158L113.049 50.1179C113.397 54.354 113.812 58.6788 113.971 59.7286L114.259 61.6373H133.163L132.869 59.4741Z" fill="#EAEBEC"/>
<path d="M57.2268 164.529L26.7324 156.054L19.9476 80.724C16.2159 39.2926 13.152 4.53502 13.1388 3.48523L13.1147 1.57654H89.0026H164.891L164.901 2.72176C164.915 4.3208 151.568 153.777 151.296 155.069C151.101 155.996 147.422 157.125 120.167 164.616C103.168 169.288 88.9134 173.087 88.4904 173.057C88.0674 173.028 73.9987 169.19 57.2268 164.529ZM108.426 135.234C118.967 132.325 127.741 129.704 127.924 129.41C128.107 129.117 129.366 116.324 130.723 100.983C132.079 85.6416 133.3 72.6887 133.435 72.1988C133.669 71.3572 131.875 71.308 100.934 71.308H68.1857L69.58 56.6747C70.3469 48.6264 70.9928 42.0205 71.0154 41.9951C71.0379 41.9696 75.8443 41.8174 81.6962 41.6569C91.2916 41.3937 111.079 42.1535 111.741 42.8106C111.988 43.0561 113.615 58.901 113.615 61.064C113.615 62.1305 113.76 62.1463 123.551 62.1463H133.487L133.253 59.9831C133.124 58.7934 132.283 49.5744 131.383 39.4964L129.746 21.173L91.4281 21.0425C60.9438 20.9387 53.109 21.0427 53.1056 21.5515C53.1029 21.9032 52.8799 24.1378 52.6091 26.5173C51.9539 32.2753 46.9567 87.9096 46.9567 89.4461V90.6495H112.167L111.877 92.5582C111.717 93.608 111.21 98.9332 110.75 104.392C110.291 109.851 109.767 114.458 109.586 114.631C109.108 115.086 89.9269 120.172 88.7308 120.161C88.1755 120.156 83.2216 118.929 77.7223 117.435L67.7235 114.718L67.3568 110.446C67.1551 108.096 66.8484 104.742 66.675 102.992L66.3599 99.8112H46.9567L46.9782 101.72C47.0184 105.289 49.3502 129.333 49.6888 129.669C50.0804 130.058 87.3429 140.455 88.4903 140.496C88.9133 140.511 97.8841 138.143 108.426 135.234Z" fill="#F0BE25"/>
<path d="M57.2268 164.529L26.7324 156.054L19.9476 80.724C16.2159 39.2926 13.152 4.53502 13.1388 3.48523L13.1147 1.57654H89.0026H164.891L164.901 2.72176C164.915 4.3208 151.568 153.777 151.296 155.069C151.101 155.996 147.422 157.125 120.167 164.616C103.168 169.288 88.9134 173.087 88.4904 173.057C88.0674 173.028 73.9987 169.19 57.2268 164.529ZM114.095 153.191C127.509 149.517 138.736 146.253 139.044 145.938C139.523 145.448 151.109 19.4091 151.062 15.1924L151.047 13.7927H89.003V20.9185H71.0564C57.0432 20.9185 53.1089 21.0579 53.1056 21.5547C53.1029 21.9046 52.8799 24.1378 52.6091 26.5173C51.9539 32.2753 46.9567 87.9096 46.9567 89.4461V90.6495H89.003V105.41C89.003 116.884 88.8603 120.169 88.362 120.161C88.0095 120.156 83.2216 118.929 77.7223 117.435L67.7235 114.718L67.3568 110.446C67.1551 108.096 66.8484 104.742 66.675 102.992L66.3599 99.8112H46.9567L46.9782 101.72C47.0396 107.179 49.4189 129.464 49.9769 129.807C50.316 130.015 59.2356 132.559 69.7983 135.46L89.003 140.735V150.303C89.003 155.566 89.161 159.872 89.3541 159.872C89.5472 159.872 100.681 156.865 114.095 153.191ZM69.526 56.8115C70.2632 48.8384 70.9667 42.2247 71.0895 42.1144C71.2123 42.0041 75.2931 41.8046 80.1579 41.671L89.003 41.4281V71.308H68.1857L69.526 56.8115Z" fill="#E4A126"/>
</svg>
