<svg width="30" height="45" viewBox="0 0 30 45" fill="none" xmlns="http://www.w3.org/2000/svg">
<path d="M12 42C12 43.65 13.35 45 15 45C16.65 45 18 43.65 18 42H12Z" fill="#616466"/>
<path d="M9.675 34.5H20.25C20.85 31.275 22.875 28.125 24.975 24.825C27.45 21 30 17.025 30 13.2C30 5.925 23.25 0 15 0C6.75 0 0 5.925 0 13.2C0 17.025 2.55 21 4.95 24.825C7.05 28.125 9.075 31.275 9.675 34.5Z" fill="#FFCE31"/>
<path d="M10.8 23.6999C10.875 24.15 11.025 24.6 11.1 25.05C11.325 25.875 11.475 26.6249 11.7 27.4499C12.375 30.2999 12.975 32.7 13.5 34.575H13.95C13.575 32.7 13.05 30.225 12.375 27.375C12.225 26.625 12 25.8 11.85 24.975C11.775 24.6 11.7 24.15 11.55 23.775C12.15 23.625 13.575 23.175 15 21.6C16.425 23.175 17.85 23.625 18.45 23.775C18.375 24.225 18.3 24.6 18.15 24.975C18 25.8 17.775 26.625 17.625 27.375C16.95 30.225 16.425 32.7 16.05 34.575H16.5C16.95 32.7 17.625 30.2999 18.3 27.4499C18.45 26.6999 18.675 25.875 18.9 25.05C18.975 24.6 19.125 24.15 19.2 23.6999C19.8 23.6249 20.325 23.475 20.7 23.1C21.15 22.65 21.375 22.125 21.225 21.525C21.15 21.225 21 20.85 20.55 20.775C20.325 20.7 20.175 20.7 19.95 20.775C19.725 20.85 19.575 21 19.5 21.075C19.125 21.525 18.975 21.9749 18.825 22.4249L18.6 23.1C18.6 23.1 18 23.175 16.575 22.2C15.825 21.675 15.6 21.3 15.375 21.075C15.6 20.775 15.825 20.5499 16.05 20.1749C16.125 19.9499 16.2 19.7999 16.275 19.5C16.275 19.275 16.275 18.975 16.125 18.75C15.975 18.525 15.825 18.3 15.45 18.15C15.3 18.075 15.15 18.075 15 18.075C14.85 18.075 14.7 18.075 14.55 18.15C14.25 18.3 14.025 18.525 13.875 18.75C13.725 18.975 13.725 19.275 13.725 19.5C13.725 19.725 13.8 19.9499 13.95 20.1749C14.1 20.5499 14.325 20.85 14.625 21.075C14.4 21.3 14.175 21.675 13.425 22.2C12.075 23.1 11.4 23.1 11.4 23.1L11.175 22.4249C11.025 21.9749 10.875 21.525 10.5 21.075C10.425 21 10.275 20.85 10.05 20.775C9.82499 20.7 9.59999 20.7 9.44999 20.775C8.99999 20.925 8.84999 21.3 8.77499 21.525C8.69999 22.125 8.92499 22.65 9.29999 23.1C9.74999 23.475 10.275 23.6249 10.8 23.6999ZM19.5 22.5749C19.65 22.1999 19.8 21.75 20.1 21.525C20.175 21.45 20.25 21.45 20.25 21.45H20.4C20.475 21.45 20.55 21.525 20.625 21.75C20.7 22.0499 20.55 22.5 20.25 22.725C20.025 22.875 19.725 23.025 19.425 23.1C19.425 22.875 19.425 22.7249 19.5 22.5749ZM14.55 18.975C14.7 18.825 14.85 18.6749 15 18.6749C15.15 18.6749 15.3 18.75 15.45 18.975C15.6 19.2 15.525 19.5 15.375 19.7999C15.3 20.025 15.15 20.25 15 20.4C14.85 20.175 14.7 20.025 14.625 19.7999C14.475 19.5749 14.4 19.275 14.55 18.975ZM9.44999 21.6C9.44999 21.45 9.52499 21.375 9.67499 21.2999H9.82499C9.82499 21.2999 9.89999 21.375 9.97499 21.375C10.2 21.6 10.425 22.0499 10.575 22.4249C10.65 22.5749 10.65 22.725 10.725 22.875C10.425 22.7999 10.125 22.725 9.89999 22.5C9.59999 22.35 9.44999 21.975 9.44999 21.6Z" fill="#C79127"/>
<path d="M9.67505 36H20.4V37.35H9.67505V36ZM10.425 38.7H19.65V40.05H10.425V38.7Z" fill="#94989B"/>
<path d="M10.425 37.35H19.65V38.7H10.425V37.35Z" fill="#616466"/>
<path d="M20.4 36L10.425 38.7V40.125L20.4 37.35V36ZM11.175 41.475H18.9V42.825H11.175V41.475Z" fill="#94989B"/>
<path d="M11.175 40.125H18.9V41.475H11.175V40.125Z" fill="#616466"/>
<path d="M19.65 38.7L11.175 41.475V42.9L19.65 40.125V38.7Z" fill="#94989B"/>
</svg>
